<svg width="120" height="64" viewBox="0 0 120 64" fill="none" xmlns="http://www.w3.org/2000/svg">
<mask id="mask0_2471_4090" style="mask-type:alpha" maskUnits="userSpaceOnUse" x="0" y="0" width="120" height="64">
<rect width="120" height="64" fill="#D9D9D9"/>
</mask>
<g mask="url(#mask0_2471_4090)">
</g>
<g clip-path="url(#clip0_2471_4090)">
<path d="M99.0153 17H102.831V39.3629H99.0153V17ZM45.8897 32.22C45.8897 32.6127 45.8619 33.0325 45.7994 33.3981H34.5667C34.9977 35.1517 36.4574 36.3907 38.6608 36.3907C39.9954 36.3907 41.4203 35.91 42.2892 34.7928L44.8957 36.8172C43.5681 38.6588 41.2048 39.7488 38.6956 39.7488C34.2609 39.7488 30.848 36.5125 30.848 32.3148C30.848 28.2119 33.7952 24.7048 38.4801 24.7048C42.8174 24.7048 45.8897 28.151 45.8897 32.22ZM42.0459 30.6561C41.8235 29.2072 40.2734 28.09 38.4453 28.09C36.6798 28.09 35.2479 29.1124 34.6918 30.6561H42.0459ZM73.3665 28.9973C73.3665 28.6317 73.6168 28.09 74.8888 28.09C75.6951 28.09 76.9045 28.2999 78.2044 29.1801L80.2201 26.5193C78.5449 25.0095 76.1538 24.7048 74.854 24.7048C71.5663 24.7048 69.6409 26.6682 69.6409 29.2952C69.6409 34.4949 77.1131 33.1611 77.1131 35.3074C77.1131 35.8219 76.6821 36.3636 75.3128 36.3636C74.2563 36.3636 72.6158 36.0318 71.2465 34.8808L69.2308 37.7177C70.5653 38.7129 72.3309 39.742 75.0626 39.742C78.7813 39.742 80.7414 37.8057 80.7414 35.1787C80.7484 30.0535 73.3665 31.0217 73.3665 28.9973ZM97.2011 32.2268C97.2011 32.6195 97.1664 33.046 97.1038 33.3981H85.8434C86.2743 35.1517 87.734 36.3907 89.9374 36.3907C91.272 36.3907 92.7317 35.91 93.6006 34.7928L96.2071 36.8172C94.8726 38.6588 92.5162 39.7488 89.9722 39.7488C85.5375 39.7488 82.1247 36.5125 82.1247 32.3148C82.1247 28.2119 85.0718 24.7048 89.7567 24.7048C94.1288 24.7048 97.2011 28.151 97.2011 32.2268ZM93.3503 30.6561C93.1348 29.2072 91.5848 28.09 89.722 28.09C87.9564 28.09 86.5246 29.1124 85.9685 30.6561H93.3503ZM65.5329 17.9072C64.1705 17.9072 63.114 18.9025 63.114 20.2363C63.114 21.5633 64.1705 22.5924 65.5329 22.5924C66.8953 22.5924 67.924 21.5633 67.924 20.2363C67.9171 18.9093 66.8953 17.9072 65.5329 17.9072ZM55.0857 36.1875C52.8545 36.1875 51.0195 34.3731 51.0195 32.2268C51.0195 30.0806 52.8475 28.2661 55.0857 28.2661C56.4829 28.2661 57.6923 28.9296 58.4361 29.9587L61.7238 28.1171C60.3267 26.0657 57.88 24.7048 55.0857 24.7048C50.7414 24.7048 47.2729 28.0291 47.2729 32.2268C47.2729 36.3636 50.7484 39.7488 55.0857 39.7488C57.9078 39.7488 60.424 38.327 61.7864 36.2146L58.5264 34.3392C57.8174 35.4631 56.5454 36.1875 55.0857 36.1875ZM63.6075 39.3561H67.4235V24.9756H63.6075V39.3561ZM24.8772 26.4854V24.9756H21.0542V39.3561H24.8702V32.2539C24.8702 29.6879 26.7609 28.2661 28.8114 28.2661C29.7428 28.2661 30.146 28.327 30.5491 28.415V24.7319C30.146 24.7048 29.7776 24.7048 29.4022 24.7048C27.6993 24.7048 26.1145 25.0975 24.8772 26.4854ZM116.247 24.9756L112.556 34.9215L108.865 24.9756H104.646L110.755 39.7556L108.086 47H111.812L120 24.9756H116.247ZM19.247 32.2268C19.247 36.3839 15.7924 39.7488 11.5246 39.7488C7.50695 39.7488 4.20528 36.763 3.83689 32.9377V47H0V24.9756H3.83689V31.5159C4.20528 27.6974 7.50695 24.7048 11.5246 24.7048C15.7924 24.7048 19.247 28.0697 19.247 32.2268ZM15.4101 32.22C15.4101 30.1347 13.6654 28.4421 11.5246 28.4421C9.38369 28.4421 7.64597 30.1347 7.64597 32.22C7.64597 34.3121 9.38369 36.0047 11.5246 36.0047C13.6654 36.0047 15.4032 34.3121 15.4101 32.22Z" fill="#1C1C1C"/>
</g>
<defs>
<clipPath id="clip0_2471_4090">
<rect width="120" height="30" fill="white" transform="translate(0 17)"/>
</clipPath>
</defs>
</svg>
