<svg width="120" height="64" viewBox="0 0 120 64" fill="none" xmlns="http://www.w3.org/2000/svg">
<mask id="mask0_2471_4099" style="mask-type:alpha" maskUnits="userSpaceOnUse" x="0" y="0" width="120" height="64">
<rect width="120" height="64" fill="#D9D9D9"/>
</mask>
<g mask="url(#mask0_2471_4099)">
<path fill-rule="evenodd" clip-rule="evenodd" d="M74.2301 26.4841L74.2265 26.4819C74.2265 26.4819 74.2248 26.4806 74.2224 26.4806C74.141 26.4453 74.0516 26.427 73.9657 26.427C73.8266 26.4279 73.6932 26.4691 73.5768 26.5412C73.4582 26.6157 73.3579 26.7243 73.3002 26.8601V26.8634L70.5846 34.2289L68.4917 29.292L68.4885 29.2899C68.4297 29.1519 68.3243 29.0452 68.2047 28.971C68.0839 28.8965 67.9446 28.8556 67.7981 28.8556C67.6556 28.8556 67.5229 28.8998 67.4056 28.9719C67.2902 29.0462 67.1859 29.1519 67.1273 29.2899L67.1259 29.292L65.0288 34.2321L62.2987 26.8699H62.2965C62.2489 26.7276 62.1519 26.6166 62.0366 26.5433C61.9194 26.4691 61.7823 26.4279 61.6409 26.427C61.5508 26.427 61.4595 26.4453 61.3733 26.4806H61.3692L61.3661 26.4841C61.1115 26.6016 60.9561 26.8537 60.9551 27.1284C60.9551 27.2147 60.9724 27.3007 61.0059 27.3859L64.3633 36.3224V36.3255C64.3895 36.3922 64.4263 36.4581 64.4808 36.5228C64.5199 36.569 64.5777 36.608 64.6373 36.6404C64.6484 36.6509 64.6657 36.6659 64.6916 36.6821C64.7198 36.6994 64.756 36.7115 64.7927 36.7178C64.8525 36.7375 64.932 36.7661 65.0384 36.7661C65.1743 36.7661 65.3004 36.7178 65.4135 36.6456C65.5192 36.5757 65.6136 36.471 65.6657 36.3353L65.6744 36.3289L67.7981 31.298L69.9245 36.3084H69.9267C69.9756 36.4419 70.0618 36.5466 70.1615 36.6209C70.2672 36.6994 70.3854 36.748 70.5107 36.7661H70.5998C70.6848 36.7661 70.7672 36.7501 70.8366 36.7232C70.9096 36.6954 70.9684 36.6585 71.0172 36.6221C71.1313 36.5357 71.2194 36.4172 71.2739 36.2856V36.2827L74.6107 27.3859C74.6434 27.3007 74.6605 27.2157 74.6605 27.1297C74.6597 26.857 74.4974 26.5973 74.2301 26.4841ZM58.8783 31.5859C58.8783 30.5365 58.4717 29.586 57.8249 28.8998C57.1746 28.2122 56.2939 27.792 55.3373 27.792C54.3803 27.792 53.4977 28.2122 52.8485 28.8998C52.2004 29.586 51.7938 30.5365 51.7938 31.5859C51.7938 32.6343 52.2004 33.5759 52.8485 34.2578C53.4977 34.9422 54.3803 35.3559 55.3373 35.3559C56.2939 35.3559 57.1777 34.9422 57.8249 34.2578C58.4717 33.5759 58.8783 32.6343 58.8783 31.5859ZM58.8598 27.9428C59.758 28.8867 60.3036 30.1819 60.3058 31.5859C60.3036 32.9899 59.758 34.2837 58.8598 35.2278C57.9685 36.1704 56.7235 36.7663 55.3395 36.7663C53.9661 36.7663 52.7191 36.1704 51.8245 35.2278C50.9285 34.2837 50.3739 32.9899 50.3739 31.5859C50.3739 30.1819 50.9285 28.8867 51.8245 27.9428C52.7191 27.0011 53.9661 26.4053 55.3395 26.4053C56.7235 26.4053 57.9685 27.0011 58.8598 27.9428ZM44.7203 26.4237C43.6069 26.4237 42.5905 26.8537 41.8316 27.5399V27.1297C41.8305 26.941 41.7598 26.7652 41.6357 26.6359C41.5153 26.5088 41.3367 26.4237 41.1412 26.4237C40.9388 26.4237 40.7562 26.5044 40.6292 26.6348C40.504 26.763 40.4291 26.941 40.4291 27.1297V36.2741L40.4584 36.3029L40.4596 36.3074C40.4673 36.3376 40.4865 36.371 40.5072 36.4031C40.604 36.5723 40.7627 36.7006 40.9594 36.7575L40.9878 36.7663H41.1412C41.2435 36.7663 41.3466 36.7449 41.4445 36.6994C41.5262 36.6607 41.6021 36.5983 41.6631 36.5185L41.6652 36.5195C41.6727 36.5121 41.6751 36.5024 41.6837 36.495C41.6871 36.4938 41.6902 36.4905 41.6924 36.4872C41.7303 36.4388 41.762 36.3893 41.7817 36.3429C41.8023 36.2879 41.8153 36.2361 41.8251 36.1963L41.8316 36.1704V30.6796C41.8523 29.8942 42.1784 29.1842 42.7015 28.668C43.221 28.1522 43.9331 27.8331 44.7203 27.8331C45.5207 27.8331 46.2348 28.1522 46.7523 28.668C47.272 29.1823 47.5874 29.8911 47.5874 30.6722V36.0639C47.5874 36.2608 47.6721 36.4431 47.8006 36.5681C47.932 36.6928 48.1114 36.7663 48.2985 36.7663C48.4887 36.7663 48.6671 36.6928 48.7975 36.5681C48.9301 36.4431 49.0105 36.2608 49.0105 36.0639V30.6722C49.0105 28.345 47.0926 26.427 44.7203 26.4237ZM114.807 30.5859C114.402 28.96 112.962 27.8017 111.318 27.805C109.632 27.805 108.212 28.9386 107.771 30.5859H114.807ZM116.364 31.252V31.3218C116.364 31.5169 116.276 31.6925 116.143 31.808C116.01 31.9241 115.837 31.9846 115.651 31.9867H107.672C107.876 33.9163 109.43 35.3411 111.286 35.3559H111.757C112.371 35.3581 112.969 35.1479 113.495 34.7999C114.023 34.4553 114.478 33.9736 114.799 33.4433C114.865 33.3303 114.96 33.2441 115.063 33.1913C115.169 33.1341 115.282 33.1082 115.396 33.1082C115.522 33.1082 115.647 33.1406 115.757 33.2063L115.764 33.2096L115.773 33.216C115.973 33.3615 116.098 33.5835 116.098 33.8272C116.098 33.951 116.066 34.0771 115.997 34.1911L115.995 34.1956L115.993 34.1976C115.547 34.9003 114.939 35.5413 114.217 36.0058C113.494 36.4712 112.656 36.7663 111.757 36.7663H111.278C109.878 36.7566 108.613 36.1704 107.7 35.2331C106.79 34.2989 106.23 33.0156 106.23 31.6054C106.23 30.1712 106.795 28.8696 107.713 27.9278C108.63 26.9872 109.905 26.4053 111.318 26.4053C112.666 26.4053 113.877 26.9365 114.774 27.8062C115.671 28.6756 116.257 29.8833 116.361 31.242L116.364 31.252ZM83.6355 22.1493C83.4412 22.1493 83.2628 22.2302 83.1347 22.3573C83.0061 22.4835 82.9248 22.6613 82.9248 22.8541V36.0639C82.9248 36.2567 83.0061 36.4334 83.1347 36.5585C83.2628 36.6833 83.4412 36.7663 83.6355 36.7663C84.039 36.7663 84.3651 36.4517 84.3675 36.0639V22.8541C84.3651 22.4652 84.039 22.1493 83.6355 22.1493ZM37.1391 31.3337C36.5649 31.0654 35.9136 30.8672 35.2637 30.6539C34.6657 30.4535 34.0589 30.2831 33.6261 30.0591C33.4087 29.9437 33.2392 29.8221 33.1294 29.6852C33.0173 29.5486 32.963 29.4094 32.9597 29.2197C32.9608 28.96 33.037 28.7511 33.1652 28.5657C33.3598 28.2889 33.6859 28.0733 34.0425 27.9341C34.3948 27.7945 34.7765 27.7286 35.0493 27.7286C35.856 27.7298 36.3661 27.9959 36.7575 28.2715C36.9509 28.4107 37.1142 28.5516 37.2686 28.668C37.3478 28.7285 37.4218 28.7834 37.5078 28.8242C37.589 28.8641 37.6848 28.8965 37.7893 28.8965C37.8556 28.8965 37.922 28.8846 37.9826 28.8589C38.0468 28.8331 38.1024 28.7963 38.1557 28.7511C38.2079 28.7027 38.2525 28.6444 38.284 28.5797C38.3123 28.5128 38.3253 28.444 38.3253 28.3762C38.3253 28.251 38.285 28.1337 38.2273 28.0235C38.1197 27.8298 37.9543 27.6446 37.7436 27.4592C37.4305 27.1833 37.0174 26.9204 36.5726 26.7223C36.1267 26.524 35.6485 26.3891 35.1929 26.3891C34.1372 26.3891 33.2555 26.6262 32.615 27.0629C32.2812 27.2911 31.9877 27.5411 31.7802 27.8859C31.5691 28.2317 31.4517 28.6585 31.4365 29.2133C31.4355 29.238 31.4355 29.2628 31.4355 29.2875C31.4334 29.8264 31.6083 30.2704 31.8833 30.6182C32.3009 31.142 32.9207 31.4555 33.5285 31.6775C34.1352 31.8994 34.7416 32.0319 35.1244 32.159C35.6636 32.3368 36.2366 32.5296 36.6541 32.785C36.862 32.9154 37.0304 33.0556 37.1446 33.2096C37.2556 33.3681 37.3183 33.5316 37.3207 33.7387V33.7539C37.3195 34.0533 37.2306 34.2882 37.0837 34.4896C36.862 34.7892 36.4933 35.0089 36.1017 35.1479C35.7116 35.2838 35.306 35.3411 35.045 35.3411C34.1242 35.3411 33.5079 35.121 33.061 34.9003C32.8369 34.7892 32.6553 34.6793 32.4911 34.5865C32.4097 34.5424 32.3335 34.5015 32.2531 34.4691C32.1748 34.4369 32.0912 34.4161 31.9966 34.4161C31.9389 34.4161 31.876 34.426 31.8182 34.4484C31.7595 34.4734 31.7062 34.5079 31.6616 34.5498C31.5996 34.6095 31.5453 34.6759 31.5074 34.7526C31.4704 34.8292 31.4517 34.9099 31.4517 34.9939C31.4517 35.1319 31.5038 35.258 31.578 35.3721C31.6942 35.5368 31.865 35.6846 32.078 35.8321C32.2975 35.9776 32.5597 36.1211 32.8619 36.2622C33.5317 36.5757 34.3905 36.7394 35.043 36.7501H35.045C36.0596 36.7501 36.9357 36.5185 37.674 35.9799V35.9786H37.675C38.3969 35.4399 38.846 34.6393 38.846 33.7354C38.846 33.2386 38.7286 32.8174 38.5232 32.4727C38.2134 31.9501 37.7098 31.6054 37.1391 31.3337ZM94.358 31.5859C94.358 30.5266 93.9545 29.5774 93.3099 28.8924C92.6661 28.2091 91.7822 27.7945 90.8156 27.7921C89.8566 27.7921 88.9762 28.2091 88.3259 28.8924C87.6803 29.5774 87.2715 30.5266 87.2715 31.5859C87.2715 32.6441 87.6803 33.587 88.3259 34.2666C88.9728 34.9465 89.8566 35.3559 90.8156 35.3559C91.7844 35.3559 92.6682 34.9465 93.312 34.2689C93.9545 33.587 94.358 32.645 94.358 31.5859ZM95.5669 26.6016C95.6985 26.7276 95.78 26.9098 95.78 27.1067V36.0639C95.78 36.2567 95.6966 36.4334 95.5715 36.5585C95.4428 36.6833 95.2658 36.7663 95.07 36.7663C94.8745 36.7663 94.6949 36.6833 94.5688 36.5585C94.4406 36.4334 94.358 36.2567 94.358 36.0639V35.19C93.4629 36.148 92.2063 36.7663 90.8156 36.7663C89.4316 36.7663 88.1856 36.177 87.2929 35.2331C86.3973 34.2937 85.8493 32.9994 85.8493 31.5859C85.8493 30.1724 86.3973 28.877 87.2929 27.9366C88.1856 26.9937 89.4316 26.4053 90.8156 26.4053C92.2054 26.4053 93.4629 27.0057 94.358 27.959V27.1067C94.358 26.9098 94.4396 26.7276 94.571 26.6016C94.7026 26.4776 94.8798 26.4053 95.07 26.4053C95.2581 26.4053 95.4377 26.4776 95.5669 26.6016ZM105.605 27.5099C105.747 27.3709 105.824 27.1865 105.824 27.0034C105.824 26.8235 105.747 26.6434 105.604 26.5129H105.605C105.604 26.5088 105.601 26.5088 105.601 26.5088C105.6 26.5055 105.598 26.5044 105.598 26.5044H105.596C105.459 26.3708 105.282 26.2975 105.101 26.2975C104.917 26.2975 104.738 26.3734 104.601 26.5088L99.0418 31.8779V22.8541C99.0418 22.4652 98.7133 22.1493 98.3098 22.1493C98.1155 22.1493 97.9373 22.2302 97.81 22.3573C97.6837 22.4835 97.5989 22.6613 97.5989 22.8541V36.0639C97.5989 36.2567 97.6837 36.4334 97.81 36.5585C97.9373 36.6833 98.1155 36.7663 98.3098 36.7663C98.7133 36.7663 99.0418 36.4517 99.0418 36.0639V33.8841L100.852 32.0924L104.542 36.5045C104.612 36.6059 104.706 36.6757 104.8 36.7125C104.906 36.7525 105.01 36.7663 105.102 36.7663C105.229 36.7663 105.409 36.7394 105.566 36.6166L105.575 36.6113L105.585 36.6014C105.732 36.4571 105.816 36.2653 105.816 36.0692C105.816 35.9043 105.755 35.7362 105.64 35.6017V35.5996L101.884 31.074L105.602 27.5099H105.605ZM80.7024 22.1807H80.5436C80.5228 22.1807 80.5023 22.1829 80.4805 22.1837C80.461 22.1829 80.4402 22.1807 80.4197 22.1807C80.0098 22.1807 79.6118 22.2269 79.2399 22.3497C78.8734 22.4704 78.5354 22.6698 78.2734 22.9726L78.2724 22.9714L78.2715 22.9726V22.9736C78.0006 23.272 77.8222 23.6288 77.7136 24.034C77.6048 24.4413 77.5602 24.9002 77.5558 25.4216V26.4314H76.4326C76.0425 26.4336 75.7327 26.7428 75.7327 27.1167C75.7306 27.318 75.8096 27.5034 75.9381 27.6372C76.0675 27.7686 76.2446 27.8547 76.4413 27.8654H77.5558V36.0811L77.5546 36.1004C77.5546 36.2932 77.6363 36.471 77.7679 36.5983C77.8981 36.7232 78.081 36.7975 78.2801 36.7975C78.6584 36.7956 78.9692 36.4895 78.9704 36.1004V27.8654H80.1782C80.3729 27.8547 80.5523 27.7738 80.6808 27.6434C80.8122 27.5132 80.8926 27.3301 80.8926 27.1317V27.105C80.8883 26.7352 80.5761 26.4314 80.1858 26.4314H78.9704V25.4259C78.978 24.9811 79.0247 24.6481 79.0921 24.4058C79.1572 24.1621 79.2465 24.0091 79.3268 23.9144C79.4053 23.8303 79.5074 23.7602 79.6738 23.704C79.8412 23.6504 80.0727 23.6159 80.3861 23.6159H80.4229C80.4414 23.6159 80.461 23.6126 80.4783 23.6126C80.5002 23.6126 80.5206 23.6159 80.5436 23.6159H80.6349H80.7024C81.1033 23.6159 81.4265 23.2948 81.4265 22.8981C81.4265 22.5018 81.1033 22.1807 80.7024 22.1807ZM9.09389 32.0522C9.15153 31.8723 9.17553 31.6869 9.1712 31.5038C9.16451 31.3713 9.1472 31.2389 9.10924 31.1064C8.99495 30.6948 8.72428 30.3272 8.31866 30.0954L2.54977 26.7942C1.73539 26.3297 0.69716 26.6059 0.229778 27.4118C-0.242127 28.2165 0.0362165 29.2443 0.850593 29.71L4.07427 31.5576L0.850593 33.4002C0.0362165 33.8667 -0.241144 34.8947 0.229778 35.7027C0.69716 36.5065 1.73539 36.7813 2.54977 36.3168L8.31866 33.0135C8.70795 32.7914 8.97213 32.4433 9.09389 32.0522ZM10.6595 35.1458C10.328 35.1177 9.98341 35.1867 9.6734 35.3657L3.90018 38.6647C3.08797 39.1302 2.81061 40.1634 3.27936 40.9695C3.75029 41.7734 4.78753 42.0502 5.59857 41.5826L8.83306 39.7335V43.4283C8.83306 44.3591 9.59295 45.1134 10.5334 45.1134C11.4694 45.1134 12.2316 44.3591 12.2316 43.4283V36.8232C12.2316 35.9364 11.538 35.2081 10.6595 35.1458ZM16.5718 27.9674C16.9023 27.9945 17.2459 27.9245 17.5559 27.7477L23.328 24.4456C24.1414 23.9799 24.4174 22.9509 23.9498 22.1427C23.4812 21.3382 22.443 21.0622 21.6308 21.5275L18.3984 23.3787V19.6827C18.3984 18.7544 17.6386 18 16.6981 18C15.7576 18 14.9997 18.7544 14.9997 19.6827V26.2878C14.9997 27.1736 15.6913 27.9031 16.5718 27.9674ZM3.90018 24.4456L9.6734 27.7477C9.98341 27.9245 10.328 27.9945 10.6595 27.9674C11.538 27.9031 12.2316 27.1736 12.2316 26.2878V19.6827C12.2316 18.7544 11.4694 18 10.5334 18C9.59295 18 8.83306 18.7544 8.83306 19.6827V23.3787L5.59857 21.5275C4.78753 21.0622 3.75029 21.3382 3.27936 22.1427C2.81061 22.9509 3.08797 23.9799 3.90018 24.4456ZM14.7497 31.5438C14.7497 31.4479 14.6911 31.3142 14.6226 31.2432L13.9278 30.5578C13.8594 30.4901 13.7244 30.434 13.6275 30.434H13.6005C13.5037 30.434 13.369 30.4901 13.3015 30.5578L12.6067 31.2432C12.5371 31.3142 12.4838 31.4479 12.4838 31.5438V31.5707C12.4838 31.6655 12.5371 31.798 12.6067 31.867L13.3015 32.5544C13.37 32.6222 13.5037 32.6782 13.6005 32.6782H13.6275C13.7244 32.6782 13.8594 32.6222 13.9278 32.5544L14.6226 31.867C14.6911 31.798 14.7497 31.6655 14.7497 31.5707V31.5438ZM16.6676 32.2031L14.2681 34.5781C14.1995 34.6479 14.0669 34.705 13.967 34.705H13.7929H13.4384H13.2614C13.1644 34.705 13.0297 34.6479 12.96 34.5781L10.5617 32.2031C10.4931 32.1362 10.4376 32.0017 10.4376 31.9068V31.7311V31.3799V31.2066C10.4376 31.1095 10.4931 30.9748 10.5617 30.9069L12.96 28.5321C13.0297 28.4622 13.1644 28.4072 13.2614 28.4072H13.4384H13.7929H13.967C14.0647 28.4072 14.1995 28.4622 14.2681 28.5321L16.6676 30.9069C16.7361 30.9748 16.7915 31.1095 16.7915 31.2066V31.3799V31.7311V31.9068C16.7915 32.0017 16.7361 32.1362 16.6676 32.2031ZM23.328 38.6647L17.5559 35.3657C17.2459 35.1867 16.9023 35.1177 16.5718 35.1458C15.6913 35.2081 14.9997 35.9364 14.9997 36.8232V43.4283C14.9997 44.3591 15.7576 45.1134 16.6981 45.1134C17.6386 45.1134 18.3984 44.3591 18.3984 43.4283V39.7335L21.6308 41.5826C22.4428 42.0502 23.4812 41.7734 23.9498 40.9695C24.4174 40.1634 24.1414 39.1302 23.328 38.6647ZM26.3799 29.71L23.1561 31.5576L26.3799 33.4002C27.1941 33.8667 27.4724 34.8947 27.0017 35.7027C26.532 36.5065 25.4928 36.7813 24.6815 36.3168L18.9083 33.0135C18.5234 32.7914 18.256 32.4433 18.1374 32.0522C18.081 31.8723 18.0548 31.6869 18.0613 31.5038C18.0646 31.3713 18.0841 31.2389 18.1211 31.1064C18.2366 30.6948 18.5072 30.3274 18.9083 30.0954L24.6815 26.7942C25.4928 26.3297 26.532 26.6059 27.0017 27.4118C27.4724 28.2165 27.1941 29.2443 26.3799 29.71ZM120 26.4147C120 27.3409 119.374 28.1138 118.33 28.1138C117.292 28.1138 116.674 27.3334 116.674 26.4147C116.674 25.4885 117.292 24.7154 118.33 24.7154C119.374 24.7154 120 25.4885 120 26.4147ZM119.669 26.4147C119.669 25.6271 119.139 25.0288 118.33 25.0288C117.535 25.0288 117.005 25.5977 117.005 26.4147C117.005 27.1948 117.535 27.8001 118.33 27.8001C119.139 27.8001 119.669 27.2022 119.669 26.4147ZM117.674 25.6488H118.388C118.778 25.6488 119.036 25.8603 119.036 26.1884C119.036 26.3927 118.933 26.5457 118.778 26.6406L119.058 27.0416V27.1219H118.653L118.381 26.7354H118.065V27.1219H117.674V25.6488ZM118.381 26.0063H118.065V26.3927H118.381C118.528 26.3927 118.624 26.327 118.624 26.2032C118.624 26.0718 118.535 26.0063 118.381 26.0063Z" fill="#1C1C1C"/>
</g>
</svg>
