<svg width="120" height="64" viewBox="0 0 120 64" fill="none" xmlns="http://www.w3.org/2000/svg">
<mask id="mask0_2471_4104" style="mask-type:alpha" maskUnits="userSpaceOnUse" x="0" y="0" width="120" height="64">
<rect width="120" height="64" fill="#D9D9D9"/>
</mask>
<g mask="url(#mask0_2471_4104)">
<path d="M48.8528 28.7754H52.7931C52.1359 24.586 48.5086 21.668 43.7882 21.668C38.2029 21.668 34.0117 25.7744 34.0117 32.6518C34.0117 39.4064 38.0143 43.5958 43.9023 43.5958C49.1867 43.5958 52.9696 40.1969 52.9696 34.6946V32.1311H44.3088V35.153H49.2282C49.1659 38.1973 47.1335 40.1242 43.9231 40.1242C40.3495 40.1242 37.9002 37.4466 37.9002 32.6103C37.9002 27.8051 40.391 25.1378 43.8401 25.1378C46.4139 25.1378 48.1748 26.5129 48.8528 28.7754Z" fill="#1C1C1C"/>
<path d="M55.5745 43.3028H59.347V27.3028H55.5745V43.3028ZM57.4772 24.7601C58.6759 24.7601 59.6549 23.8416 59.6549 22.7173C59.6549 21.5929 58.6759 20.6641 57.4772 20.6641C56.2785 20.6641 55.2891 21.5808 55.2891 22.7173C55.2891 23.8537 56.2612 24.7601 57.4703 24.7601H57.4772Z" fill="#1C1C1C"/>
<path d="M70.6446 27.3024H67.4861V23.459H63.7135V27.3024H61.4424V30.2205H63.7135V39.1217C63.6928 42.1332 65.8826 43.619 68.7159 43.5308C69.4707 43.5158 70.2191 43.3893 70.9369 43.1554L70.3003 40.2045C69.9398 40.2981 69.5692 40.3474 69.1968 40.3515C68.2472 40.3515 67.4861 40.0177 67.4861 38.4955V30.2119H70.6446V27.3024Z" fill="#1C1C1C"/>
<path d="M73.5645 43.3039H86.8315V40.0624H77.4321V21.959H73.5645V43.3039Z" fill="#1C1C1C"/>
<path d="M94.0576 43.6276C96.5692 43.6276 98.0688 42.4496 98.7573 41.1056H98.8818V43.3041H102.514V32.5902C102.514 28.3592 99.0652 27.0879 96.0104 27.0879C92.6444 27.0879 90.0602 28.5876 89.2264 31.5056L92.7499 32.0072C93.1235 30.9123 94.1873 29.9748 96.0364 29.9748C97.7886 29.9748 98.7469 30.8708 98.7469 32.4449V32.5071C98.7469 33.59 97.6104 33.6436 94.7858 33.9445C91.6809 34.2784 88.711 35.2055 88.711 38.812C88.7006 41.9601 91.0029 43.6276 94.0576 43.6276ZM95.2978 40.86C93.7237 40.86 92.5977 40.1404 92.5977 38.7549C92.5977 37.3054 93.8587 36.7017 95.5382 36.4613C96.5294 36.3264 98.5099 36.0756 98.9977 35.6812V37.5666C99.0081 39.343 97.5689 40.8548 95.2978 40.8548V40.86Z" fill="#1C1C1C"/>
<path d="M105.293 43.3039H109.003V40.7819H109.221C109.816 41.9495 111.056 43.5858 113.808 43.5858C117.581 43.5858 120.406 40.5934 120.406 35.3212C120.406 29.9849 117.498 27.0876 113.798 27.0876C110.973 27.0876 109.795 28.7862 109.221 29.9434H109.062V21.959H105.293V43.3039ZM108.993 35.3004C108.993 32.1869 110.326 30.1821 112.755 30.1821C115.267 30.1821 116.56 32.3183 116.56 35.3004C116.56 38.2825 115.248 40.4896 112.755 40.4896C110.347 40.4896 108.993 38.4053 108.993 35.3004Z" fill="#1C1C1C"/>
<path d="M26.8994 29.27L26.8631 29.1732L23.1961 19.6078C23.1218 19.4199 22.9898 19.2606 22.819 19.1528C22.6916 19.0713 22.5468 19.0207 22.3963 19.0051C22.2458 18.9896 22.0937 19.0095 21.9523 19.0633C21.8109 19.1171 21.684 19.2033 21.5819 19.315C21.4798 19.4267 21.4053 19.5607 21.3643 19.7064L18.889 27.2843H8.86524L6.38999 19.7064C6.34871 19.5609 6.274 19.4271 6.17185 19.3157C6.06969 19.2042 5.9429 19.1182 5.80159 19.0644C5.66029 19.0106 5.50838 18.9906 5.35797 19.006C5.20756 19.0213 5.06282 19.0716 4.93529 19.1528C4.7645 19.2606 4.63243 19.4199 4.55821 19.6078L0.892907 29.1749L0.854853 29.27C0.327157 30.6492 0.262147 32.1625 0.669622 33.5818C1.0771 35.0011 1.93497 36.2494 3.11388 37.1386L3.12772 37.149L3.15886 37.1732L8.73724 41.3539L11.5048 43.4452L13.1861 44.7166C13.3834 44.8656 13.6239 44.9462 13.8711 44.9462C14.1183 44.9462 14.3588 44.8656 14.5561 44.7166L16.2374 43.4452L19.0049 41.3539L24.6231 37.149L24.6387 37.1369C25.8175 36.248 26.6755 35.0001 27.0833 33.5811C27.491 32.1622 27.4265 30.6491 26.8994 29.27Z" fill="#1C1C1C"/>
<path d="M26.8998 29.2707L26.8635 29.1738C25.0768 29.5405 23.3934 30.2977 21.9337 31.3913L13.8818 37.48L19.0088 41.3546L24.6269 37.1496L24.6425 37.1375C25.8207 36.2482 26.678 35.0001 27.0852 33.5811C27.4923 32.1622 27.4273 30.6494 26.8998 29.2707Z" fill="#1C1C1C"/>
<path d="M8.7373 41.3531L11.5049 43.4444L13.1862 44.7157C13.3834 44.8647 13.6239 44.9453 13.8711 44.9453C14.1184 44.9453 14.3589 44.8647 14.5561 44.7157L16.2374 43.4444L19.005 41.3531L13.8781 37.4785L8.7373 41.3531Z" fill="#1C1C1C"/>
<path d="M5.82091 31.3916C4.36181 30.2985 2.67892 29.5418 0.892907 29.1758L0.854853 29.2709C0.327157 30.65 0.262147 32.1633 0.669622 33.5826C1.0771 35.002 1.93497 36.2503 3.11388 37.1395L3.12772 37.1498L3.15886 37.1741L8.73724 41.3548L13.8676 37.4802L5.82091 31.3916Z" fill="#1C1C1C"/>
</g>
</svg>
