<svg width="96" height="64" viewBox="0 0 96 64" fill="none" xmlns="http://www.w3.org/2000/svg">
<mask id="mask0_4528_2585" style="mask-type:alpha" maskUnits="userSpaceOnUse" x="0" y="0" width="96" height="64">
<rect width="96" height="64" fill="#D9D9D9"/>
</mask>
<g mask="url(#mask0_4528_2585)">
<path d="M95.3328 38.0474C95.1696 38.0474 95.0208 38.1531 94.944 38.3739C93.96 41.1825 92.6304 42.8532 91.536 42.8532C90.9072 42.8532 90.6528 42.1523 90.6528 41.0528C90.6528 38.3019 92.2992 32.4687 93.1296 29.809C93.2256 29.4873 93.288 29.1993 93.288 28.9544C93.288 28.1814 92.8656 27.8022 91.8192 27.8022C90.6912 27.8022 89.4768 28.2439 88.296 30.3131C87.888 28.4887 86.6544 27.6918 84.9312 27.6918C82.9392 27.6918 81.0144 28.9736 79.4304 31.0524C77.8464 33.1312 75.984 33.813 74.5824 33.4769C75.5904 31.0092 75.9648 29.1656 75.9648 27.7974C75.9648 25.6513 74.904 24.3551 73.1904 24.3551C70.584 24.3551 69.0816 26.842 69.0816 29.4585C69.0816 31.4797 69.9984 33.5585 72.0144 34.5667C70.3248 38.3883 67.8576 41.845 66.9216 41.845C65.712 41.845 65.3568 35.9254 65.424 31.691C65.4672 29.2617 65.6688 29.1368 65.6688 28.4023C65.6688 27.9798 65.3952 27.6918 64.296 27.6918C61.7328 27.6918 60.9408 29.8618 60.8208 32.3535C60.7824 33.2993 60.6336 34.2403 60.3792 35.1525C59.3088 38.974 57.1008 41.8738 55.6608 41.8738C54.9936 41.8738 54.8112 41.2065 54.8112 40.3327C54.8112 37.5817 56.352 34.1442 56.352 31.2109C56.352 29.0552 55.4064 27.6918 53.6256 27.6918C51.528 27.6918 48.7536 30.1883 46.128 34.8644C46.992 31.2829 47.3472 27.8166 44.7888 27.8166C44.232 27.8262 43.6896 27.9654 43.2 28.2295C42.864 28.3879 42.6576 28.7336 42.6816 29.1032C42.9264 32.9152 39.6096 42.6804 36.4656 42.6804C35.8944 42.6804 35.616 42.061 35.616 41.0624C35.616 38.3067 37.2576 32.4879 38.0832 29.8234C38.1888 29.4777 38.2464 29.1801 38.2464 28.9208C38.2464 28.1911 37.7952 27.8166 36.7728 27.8166C35.6496 27.8166 34.4304 28.2439 33.2544 30.3131C32.8416 28.4887 31.608 27.6918 29.8848 27.6918C27.0576 27.6918 23.8992 30.6828 22.512 34.5811C20.6544 39.7854 16.9104 44.812 11.8704 44.812C7.296 44.812 4.8816 41.0048 4.8816 34.9892C4.8816 26.3043 11.256 19.2084 15.984 19.2084C18.2448 19.2084 19.3248 20.6487 19.3248 22.8572C19.3248 25.5313 17.832 26.7748 17.832 27.7926C17.832 28.1046 18.0912 28.4119 18.6048 28.4119C20.6592 28.4119 23.0784 25.997 23.0784 22.7035C23.0784 19.4101 20.4048 17 15.6768 17C7.8624 17 0 24.864 0 34.9412C0 42.9588 3.9552 47.7934 10.7952 47.7934C15.4608 47.7934 19.536 44.1639 21.7344 39.9294C21.984 43.4389 23.5776 45.2729 26.0064 45.2729C28.1664 45.2729 29.9136 43.9862 31.248 41.725C31.7616 44.0919 33.1248 45.2489 34.896 45.2489C36.9264 45.2489 38.6256 43.9622 40.2432 41.5713C40.2192 43.4485 40.6464 45.2153 42.2736 45.2153C43.0416 45.2153 43.9584 45.0376 44.1216 44.3655C45.8352 37.2793 50.0688 31.4941 51.3648 31.4941C51.7488 31.4941 51.8544 31.8638 51.8544 32.3007C51.8544 34.2259 50.496 38.1723 50.496 40.6928C50.496 43.4149 51.6528 45.2153 54.0432 45.2153C56.6928 45.2153 59.3856 41.9698 61.1808 37.2265C61.7424 41.6578 62.9568 45.2345 64.8576 45.2345C67.1904 45.2345 71.3328 40.3231 73.8432 35.1236C74.8272 35.2485 76.3056 35.2149 77.7264 34.2115C77.1216 35.743 76.7664 37.4185 76.7664 39.094C76.7664 43.919 79.0704 45.2729 81.0528 45.2729C83.208 45.2729 84.9552 43.9862 86.2944 41.725C86.736 43.7654 87.864 45.2441 89.9376 45.2441C93.1824 45.2441 96 41.9266 96 39.2045C96 38.4843 95.6928 38.0474 95.3328 38.0474ZM27.984 42.5988C26.6736 42.5988 26.16 41.2785 26.16 39.3101C26.16 35.8918 28.4976 30.1835 30.9696 30.1835C32.0496 30.1835 32.4576 31.4557 32.4576 33.0112C32.4576 36.4823 30.2352 42.5988 27.984 42.5988ZM72.8688 32.3967C72.0864 31.4653 71.8032 30.1979 71.8032 29.0696C71.8032 27.6773 72.312 26.5011 72.9216 26.5011C73.5312 26.5011 73.7184 27.1012 73.7184 27.9366C73.7184 29.3337 73.2192 31.3741 72.8688 32.3967ZM83.0304 42.5988C81.72 42.5988 81.2064 41.0816 81.2064 39.3101C81.2064 36.0118 83.544 30.1835 86.0352 30.1835C87.1152 30.1835 87.4992 31.4461 87.4992 33.0112C87.4992 36.4823 85.3152 42.5988 83.0304 42.5988Z" fill="#1C1C1C"/>
</g>
</svg>
