<svg width="120" height="64" viewBox="0 0 120 64" fill="none" xmlns="http://www.w3.org/2000/svg">
<mask id="mask0_4224_2972" style="mask-type:alpha" maskUnits="userSpaceOnUse" x="0" y="0" width="120" height="64">
<rect width="120" height="64" fill="#D9D9D9"/>
</mask>
<g mask="url(#mask0_4224_2972)">
</g>
<g clip-path="url(#clip0_4224_2972)">
<path d="M33.0148 39.067C34.3148 39.067 35.5078 38.7175 36.5584 38.055V33.0316H34.5462V36.8222C34.0654 37.0061 33.6025 37.0614 33.0861 37.0614C31.2875 37.0614 30.2904 35.9021 30.2904 32.866C30.2904 29.9219 31.2697 28.7811 33.0861 28.7811C33.8874 28.7811 34.7065 29.0202 35.4544 29.4619L36.3447 27.6586C35.3297 27.033 34.2613 26.7754 33.0505 26.7754C29.9164 26.7754 28.0645 28.8914 28.0645 32.866C28.0645 37.1166 29.8986 39.067 33.0148 39.067Z" fill="#1C1C1C"/>
<path d="M39.9436 28.4685C40.7449 28.4685 41.1723 27.9348 41.1723 27.2357C41.1723 26.5548 40.7449 25.9844 39.9436 25.9844C39.1601 25.9844 38.7148 26.5548 38.7148 27.2357C38.7148 27.9348 39.1601 28.4685 39.9436 28.4685ZM40.9942 29.7013H38.893V38.8832H40.9942V29.7013Z" fill="#1C1C1C"/>
<path d="M49.1048 29.7005H46.4337V27.4004H44.9023L44.4749 29.7005L42.7832 29.9581V31.5222H44.368V35.9935C44.368 38.0728 45.4543 39.0665 47.235 39.0665C48.0364 39.0665 48.8199 38.8457 49.4965 38.4592L48.9089 36.748C48.3925 37.0055 47.9473 37.116 47.5199 37.116C46.7899 37.116 46.4337 36.8031 46.4337 35.9015V31.5222H49.1048V29.7005Z" fill="#1C1C1C"/>
<path d="M55.7785 39.067C57.0784 39.067 58.2715 38.7175 59.3221 38.055V33.0316H57.3099V36.8222C56.8291 37.0061 56.3661 37.0614 55.8497 37.0614C54.0512 37.0614 53.0539 35.9021 53.0539 32.866C53.0539 29.9219 54.0333 28.7811 55.8497 28.7811C56.651 28.7811 57.4701 29.0202 58.2181 29.4619L59.1084 27.6586C58.0934 27.033 57.025 26.7754 55.8141 26.7754C52.6801 26.7754 50.8281 28.8914 50.8281 32.866C50.8281 37.1166 52.6622 39.067 55.7785 39.067Z" fill="#1C1C1C"/>
<path d="M61.584 29.7012V35.9759C61.584 37.9815 62.5456 39.0672 64.2373 39.0672C65.1098 39.0672 65.8933 38.7728 66.9618 37.7791V38.8831H68.9917V29.7012H66.8905V36.2151C66.0714 36.8591 65.4125 37.0799 64.8783 37.0799C64.077 37.0799 63.6852 36.675 63.6852 35.6815V29.7012H61.584Z" fill="#1C1C1C"/>
<path d="M78.5449 38.8835V32.9401C78.5449 30.5112 77.3518 29.5176 75.1971 29.5176C74.1109 29.5176 72.8466 29.8488 71.5644 30.4928L72.2055 32.2041C73.3451 31.6705 74.1821 31.4497 74.8766 31.4497C76.0341 31.4497 76.497 31.9096 76.497 33.0873V33.6209H74.4848C72.2768 33.6209 71.2617 34.8354 71.2617 36.3442C71.2617 38.0003 72.4013 39.0675 73.9506 39.0675C74.9478 39.0675 75.7848 38.7363 76.5504 37.8715V38.8835H78.5449ZM74.5205 37.3563C73.7547 37.3563 73.2918 36.9699 73.2918 36.2155C73.2918 35.5898 73.6657 35.1297 74.6094 35.1297H76.497V36.4915C75.7848 37.117 75.1971 37.3563 74.5205 37.3563Z" fill="#1C1C1C"/>
<path d="M83.2672 38.8835V32.4617C84.1932 31.836 85.1014 31.6336 86.2766 31.6336V29.5176C85.2082 29.5176 84.3179 29.812 83.196 30.916V29.7015H81.166V38.8835H83.2672Z" fill="#1C1C1C"/>
<path d="M95.4597 38.8819V26.4062H93.3585V29.9576C92.7529 29.6632 92.1475 29.516 91.4887 29.516C89.3518 29.516 87.6602 30.896 87.6602 34.3186C87.6602 37.8147 89.1381 39.066 91.0079 39.066C91.8982 39.066 92.6818 38.7348 93.4474 37.8884V38.8819H95.4597ZM91.6133 37.1339C90.3668 37.1339 89.7792 36.4714 89.7792 34.3186C89.7792 32.0553 90.4202 31.3561 91.8626 31.3561C92.3256 31.3561 92.842 31.4665 93.3585 31.6873V36.4531C92.7529 36.9683 92.1653 37.1339 91.6133 37.1339Z" fill="#1C1C1C"/>
<path d="M99.2427 28.4685C100.044 28.4685 100.472 27.9348 100.472 27.2357C100.472 26.5548 100.044 25.9844 99.2427 25.9844C98.459 25.9844 98.0137 26.5548 98.0137 27.2357C98.0137 27.9348 98.459 28.4685 99.2427 28.4685ZM100.294 29.7013H98.1918V38.8832H100.294V29.7013Z" fill="#1C1C1C"/>
<path d="M109.864 38.8835V32.9401C109.864 30.5112 108.67 29.5176 106.516 29.5176C105.429 29.5176 104.165 29.8488 102.883 30.4928L103.524 32.2041C104.663 31.6705 105.5 31.4497 106.195 31.4497C107.353 31.4497 107.815 31.9096 107.815 33.0873V33.6209H105.803C103.595 33.6209 102.58 34.8354 102.58 36.3442C102.58 38.0003 103.72 39.0675 105.269 39.0675C106.266 39.0675 107.104 38.7363 107.869 37.8715V38.8835H109.864ZM105.839 37.3563C105.073 37.3563 104.61 36.9699 104.61 36.2155C104.61 35.5898 104.984 35.1297 105.928 35.1297H107.815V36.4915C107.104 37.117 106.516 37.3563 105.839 37.3563Z" fill="#1C1C1C"/>
<path d="M114.587 38.8835V32.388C115.442 31.7257 116.154 31.5048 116.706 31.5048C117.508 31.5048 117.899 31.9281 117.899 32.9216V38.8835H120V32.6089C120 30.6032 119.039 29.5176 117.347 29.5176C116.457 29.5176 115.62 29.812 114.516 30.824V29.7015H112.486V38.8835H114.587Z" fill="#1C1C1C"/>
<path fill-rule="evenodd" clip-rule="evenodd" d="M17.4652 18.099C16.5492 17.2741 15.1752 17.2839 14.2618 18.1023C13.5277 18.7603 12.587 19.1226 11.6128 19.1226C10.6388 19.1226 9.69816 18.7602 8.96423 18.1023C8.05022 17.2832 6.67588 17.2747 5.76013 18.0995L5.75554 18.1036L5.75099 18.1078C2.97564 20.6754 2.65965 23.6883 2.74356 25.4576L1.61486 26.3197C0.602703 27.0797 0 28.3005 0 29.5904V31.1448C0 36.1365 1.89579 41.073 5.05152 44.0134C7.44907 46.247 9.55781 47.4806 11.6124 47.4844H11.6156C13.6683 47.4806 15.7771 46.2469 18.1743 44.0134C21.3304 41.073 23.2258 36.1365 23.2258 31.1448V29.5904C23.2258 28.3017 22.6243 27.0804 21.6158 26.3233L20.4841 25.459C20.5637 23.6291 20.1853 20.6006 17.4723 18.1055L17.4687 18.1022L17.4652 18.099Z" fill="white"/>
<path fill-rule="evenodd" clip-rule="evenodd" d="M11.0837 24.3389C10.9608 24.2088 10.7972 24.0359 10.5572 23.8097C8.93456 22.2804 6.78986 21.8575 5.07167 23.0565C5.42804 21.7739 6.13631 20.6078 7.13255 19.7106C7.26213 19.594 7.46107 19.5968 7.59561 19.7173C8.71298 20.715 10.1039 21.2648 11.6127 21.2648C13.1215 21.2648 14.5161 20.715 15.6298 19.7173C15.764 19.5968 15.9633 19.594 16.0928 19.7106C17.0891 20.6078 17.7974 21.7739 18.1537 23.0565C16.4356 21.8575 14.2908 22.2804 12.6681 23.8097C12.4281 24.0359 12.2645 24.2088 12.1416 24.3389C11.8987 24.5958 11.8144 24.6849 11.6127 24.6849C11.4109 24.6849 11.3267 24.5958 11.0837 24.3389ZM6.16643 30.9721C7.42629 32.1887 9.02835 32.9345 10.761 33.12C11.4869 34.3917 11.8865 35.9924 11.8865 37.6488C11.8865 40.203 10.8567 42.6443 9.0557 44.3969C8.27805 43.9205 7.42604 43.2503 6.49047 42.3784C4.93715 40.9313 3.72579 38.8775 2.98047 36.5447L6.16643 30.9721Z" fill="#1C1C1C"/>
<path fill-rule="evenodd" clip-rule="evenodd" d="M2.88562 28.0953L3.96419 27.2715C4.24421 28.2671 4.70379 29.1989 5.32278 30.0196L2.54069 34.8853C2.28205 33.6747 2.14453 32.4145 2.14453 31.1439V29.5895C2.14453 28.9926 2.41286 28.4493 2.88562 28.0953ZM19.2797 27.2839L20.3466 28.0989C20.8147 28.4495 21.0833 28.9925 21.0833 29.5894V31.1437C21.0833 34.3466 20.2128 37.483 18.7179 39.9192C19.1623 38.6217 19.415 37.2574 19.415 35.9601C19.415 33.9136 18.8475 31.943 17.7722 30.2384C18.4841 29.3655 19.0012 28.2895 19.2797 27.2839Z" fill="white"/>
<path fill-rule="evenodd" clip-rule="evenodd" d="M18.7171 39.9195C20.2123 37.483 21.0826 34.3469 21.0826 31.144V29.5897C21.0826 28.9929 20.814 28.4497 20.346 28.0992L19.2792 27.2842C19.0006 28.2898 18.4834 29.3658 17.7717 30.2387C18.847 31.9433 19.4144 33.9138 19.4144 35.9602C19.4144 37.2574 19.1615 38.6217 18.7171 39.9195ZM11.6143 45.2783C12.4922 45.277 13.5071 44.8743 14.6824 44.0613C16.7053 42.3517 18.2173 38.9036 18.2173 35.9602C18.2173 34.2479 17.7666 32.5963 16.9119 31.1479C15.5938 32.34 13.9266 33.0374 12.1308 33.1492C12.7488 34.4815 13.0843 36.0461 13.0843 37.6486C13.0843 40.3908 12.0366 43.0173 10.1908 44.9743C10.7008 45.1757 11.1748 45.2777 11.6143 45.2783ZM6.49082 42.3782C7.42663 43.2498 8.27839 43.9201 9.05629 44.3966C10.8573 42.6441 11.8869 40.2027 11.8869 37.6486C11.8869 35.9919 11.4875 34.3912 10.7616 33.1197C9.02894 32.9343 7.42663 32.1885 6.16702 30.9718L2.98106 36.5442C3.72613 38.8773 4.93774 40.9311 6.49082 42.3782ZM2.14398 29.5897V31.144C2.14398 32.4149 2.2815 33.6751 2.54013 34.8854L5.32222 30.0197C4.70348 29.199 4.2439 28.2673 3.96388 27.2716L2.88531 28.0954C2.41231 28.4495 2.14398 28.9929 2.14398 29.5897ZM12.6628 25.5851C12.2861 26.0564 11.9911 26.4253 11.613 26.4253C11.235 26.4253 10.9403 26.0566 10.5637 25.5853C10.4083 25.391 10.2391 25.1792 10.0443 24.9687C8.84441 23.6533 7.31049 23.324 6.19512 23.7804C5.24239 24.1703 4.78505 25.0703 4.91163 26.2176C5.1474 27.6467 5.78901 28.946 6.77954 29.9601C8.04537 31.2564 9.74441 31.9701 11.613 31.9701C13.4819 31.9701 15.181 31.2564 16.4469 29.9601C17.4372 28.946 18.0788 27.6467 18.3148 26.2176C18.4411 25.0703 17.984 24.1703 17.031 23.7804C15.9162 23.324 14.3822 23.6533 13.182 24.9687C12.9874 25.1791 12.8182 25.3908 12.6628 25.5851ZM15.6301 19.7169C14.5168 20.7146 13.1218 21.2644 11.613 21.2644C10.1043 21.2644 8.7136 20.7146 7.59624 19.7169C7.4617 19.5964 7.26274 19.5936 7.13318 19.7103C6.13693 20.6074 5.42866 21.7735 5.07228 23.0562C6.79049 21.8571 8.93493 22.2803 10.5579 23.8093C10.7975 24.0352 10.961 24.2081 11.0838 24.3381C11.3271 24.5953 11.4114 24.6845 11.6133 24.6845C11.8151 24.6845 11.8993 24.5954 12.1423 24.3385C12.2652 24.2085 12.4288 24.0355 12.6688 23.8093C14.2915 22.2803 16.4359 21.8571 18.1543 23.0562C17.798 21.7735 17.0894 20.6074 16.0934 19.7103C15.9639 19.5936 15.7647 19.5964 15.6301 19.7169ZM19.5303 25.9078L21.071 27.0847C21.8429 27.6625 22.3064 28.6004 22.3064 29.5897V31.144C22.3064 35.9198 20.4868 40.5821 17.5573 43.3115C15.1982 45.5095 13.3096 46.5346 11.6143 46.5377C9.917 46.5346 8.02846 45.5095 5.66914 43.3115C2.73983 40.5821 0.919922 35.9198 0.919922 31.144V29.5897C0.919922 28.6004 1.38373 27.6625 2.16014 27.081L3.69903 25.9055C3.54956 24.4192 3.58985 21.379 6.36622 18.8105C6.93174 18.3012 7.78923 18.303 8.36046 18.8149C9.26196 19.623 10.4172 20.0679 11.613 20.0679C12.8093 20.0679 13.9645 19.623 14.8662 18.8149C15.4372 18.3032 16.2944 18.301 16.8597 18.81C19.5584 21.292 19.6875 24.3489 19.5303 25.9078ZM6.80058 26.6108C6.80058 25.9272 7.22135 25.371 7.73863 25.371C8.2559 25.371 8.67644 25.9272 8.67644 26.6108C8.67644 27.2946 8.2559 27.8504 7.73863 27.8504C7.22135 27.8504 6.80058 27.2946 6.80058 26.6108ZM11.6106 27.4263C12.0554 27.4263 12.375 27.7566 12.4062 28.248C12.4108 28.3212 12.4131 28.3961 12.4131 28.4709C12.4131 29.2537 12.2599 29.8919 11.9008 30.6052L11.8871 30.6325C11.8351 30.7385 11.7566 30.898 11.6106 30.898C11.4653 30.898 11.3867 30.7391 11.3345 30.6335L11.334 30.6325L11.3206 30.6052C10.9612 29.8919 10.8083 29.2537 10.8083 28.4709C10.8083 28.3961 10.8105 28.3212 10.8152 28.248C10.8461 27.7566 11.1659 27.4263 11.6106 27.4263ZM16.6959 26.4173C16.5722 26.0128 16.2091 25.701 15.7921 25.6416C15.2097 25.5587 14.6178 25.9182 14.2082 26.6025C14.0851 26.8074 14.1411 26.9811 14.2346 27.075C14.2985 27.1394 14.3838 27.1748 14.4806 27.1771L14.4845 27.1773H14.4868C14.6013 27.1773 14.7074 27.0998 14.7854 27.0428L14.7862 27.0422L14.8214 27.0169C15.2438 26.7227 15.5994 26.7015 15.9751 26.9473C16.1831 27.0835 16.3979 27.0968 16.5499 26.9827C16.707 26.8642 16.7645 26.6422 16.6959 26.4173Z" fill="#1C1C1C"/>
</g>
<defs>
<clipPath id="clip0_4224_2972">
<rect width="120" height="30.9375" fill="white" transform="translate(0 17)"/>
</clipPath>
</defs>
</svg>
