<svg width="120" height="64" viewBox="0 0 120 64" fill="none" xmlns="http://www.w3.org/2000/svg">
<mask id="mask0_2471_4118" style="mask-type:alpha" maskUnits="userSpaceOnUse" x="0" y="0" width="120" height="64">
<rect width="120" height="64" fill="#D9D9D9"/>
</mask>
<g mask="url(#mask0_2471_4118)">
</g>
<g clip-path="url(#clip0_2471_4118)">
<path d="M12.1581 42.4482C11.0529 42.6455 9.98707 41.935 9.78971 40.8297L6.78971 24.4482C6.59234 23.3429 7.30286 22.2771 8.40813 22.0797C9.51339 21.8824 10.5792 22.5929 10.7765 23.6982L13.7765 40.0797C13.9739 41.185 13.2239 42.2508 12.1581 42.4482Z" fill="#1C1C1C"/>
<path d="M4.30249 39.6441C3.59196 39.7625 2.88144 39.5257 2.36828 38.973C1.65775 38.1046 1.7367 36.8414 2.60512 36.1309L15.2762 25.3546C16.1446 24.6441 17.4078 24.723 18.1183 25.5914C18.8288 26.4599 18.7499 27.723 17.8814 28.4336L5.24986 39.2099C4.97354 39.4467 4.61828 39.6046 4.30249 39.6441Z" fill="#1C1C1C"/>
<path d="M18.4739 37.0388C18.1186 37.1177 17.7633 37.0783 17.4475 36.9598L1.73702 31.394C0.67123 30.9993 0.118598 29.8546 0.513335 28.7888C0.908072 27.723 2.05281 27.1704 3.1186 27.5651L18.7897 33.1309C19.8554 33.5256 20.4081 34.6704 20.0133 35.7361C19.7765 36.4467 19.1449 36.9204 18.4739 37.0388Z" fill="#1C1C1C"/>
<path d="M31.5788 35.0656C31.5788 34.6708 31.4209 34.3551 31.1446 34.1182C30.8683 33.8814 30.513 33.6445 30.0788 33.4472C29.6446 33.2498 29.1709 33.0524 28.6577 32.8156C28.1446 32.6182 27.6709 32.3419 27.2367 32.0261C26.8025 31.7103 26.4472 31.3156 26.1709 30.8419C25.8946 30.3682 25.7367 29.7761 25.7367 29.0656C25.7367 28.434 25.8551 27.8814 26.0525 27.4472C26.2498 26.9735 26.5656 26.6182 26.9604 26.3024C27.3551 25.9866 27.7893 25.7893 28.342 25.6314C28.8551 25.4735 29.4472 25.3945 30.1183 25.3945C30.8683 25.3945 31.5788 25.4735 32.2104 25.5919C32.8419 25.7103 33.4341 25.9077 33.8288 26.1445L33.0393 28.2366C32.763 28.0787 32.3683 27.9208 31.8156 27.8024C31.263 27.6445 30.7104 27.6051 30.0788 27.6051C29.4867 27.6051 29.0525 27.7235 28.7367 27.9603C28.4209 28.1972 28.263 28.513 28.263 28.9077C28.263 29.263 28.4209 29.5787 28.6972 29.8156C28.9735 30.0524 29.3288 30.2893 29.763 30.4866C30.1972 30.684 30.6709 30.9208 31.1841 31.1182C31.6972 31.3551 32.1709 31.5919 32.6051 31.9077C33.0393 32.2235 33.3946 32.6182 33.6709 33.0524C33.9472 33.5261 34.1051 34.0787 34.1051 34.7498C34.1051 35.4208 33.9867 36.013 33.7498 36.5261C33.513 37.0393 33.1972 37.434 32.8025 37.7498C32.4077 38.0656 31.8946 38.3419 31.3025 38.4998C30.7104 38.6577 30.0788 38.7366 29.3683 38.7366C28.4604 38.7366 27.6314 38.6577 26.9604 38.4603C26.2498 38.3024 25.7367 38.1051 25.4209 37.9472L26.2104 35.8156C26.3288 35.8945 26.5262 35.9735 26.7235 36.0524C26.9209 36.1314 27.1972 36.2103 27.4341 36.2893C27.7104 36.3682 27.9867 36.4077 28.3025 36.4866C28.6183 36.5261 28.8946 36.5656 29.2104 36.5656C29.9604 36.5656 30.513 36.4472 30.9077 36.1708C31.3814 35.934 31.5788 35.5787 31.5788 35.0656ZM35.1709 33.9208C35.1709 32.3814 35.5656 31.1577 36.3156 30.3287C37.0656 29.4998 38.1314 29.0656 39.513 29.0656C40.263 29.0656 40.8946 29.184 41.4077 29.4208C41.9604 29.6577 42.3946 29.9735 42.7498 30.4077C43.1051 30.8419 43.3814 31.3551 43.5393 31.9472C43.6972 32.5393 43.8156 33.2103 43.8156 33.9208C43.8156 35.4603 43.4209 36.684 42.6709 37.513C41.9209 38.3419 40.8551 38.7761 39.4735 38.7761C38.7235 38.7761 38.0919 38.6577 37.5788 38.4208C37.0262 38.184 36.592 37.8682 36.2367 37.434C35.8814 36.9998 35.6051 36.4866 35.4472 35.8945C35.2498 35.3024 35.1709 34.6314 35.1709 33.9208ZM37.6183 33.9208C37.6183 34.3156 37.6577 34.7103 37.7367 35.0261C37.8156 35.3814 37.9341 35.6577 38.0525 35.934C38.2104 36.2103 38.4077 36.4077 38.6446 36.5261C38.8814 36.684 39.1577 36.7235 39.513 36.7235C40.1446 36.7235 40.6183 36.4866 40.8946 36.0524C41.2104 35.6182 41.3683 34.8682 41.3683 33.9208C41.3683 33.0919 41.2104 32.3814 40.9341 31.8682C40.6577 31.3551 40.1841 31.0787 39.513 31.0787C38.9209 31.0787 38.4472 31.3156 38.1314 31.7498C37.7762 32.184 37.6183 32.8945 37.6183 33.9208ZM47.4077 29.3419V34.5524C47.4077 35.3024 47.4867 35.8551 47.6841 36.1708C47.842 36.4866 48.1972 36.684 48.7104 36.684C49.1446 36.684 49.5393 36.5656 49.8551 36.2893C50.1709 36.013 50.3683 35.6972 50.5262 35.3024V29.3814H52.8946V35.7761C52.8946 36.2893 52.9341 36.763 52.9735 37.2366C53.013 37.7103 53.092 38.1445 53.2104 38.5393H51.3946L50.9604 37.1972H50.8814C50.6051 37.6708 50.2104 38.0656 49.6972 38.3419C49.1841 38.6577 48.592 38.8156 47.9209 38.8156C47.4472 38.8156 47.0525 38.7366 46.6577 38.6182C46.3025 38.4998 45.9867 38.3024 45.7498 38.0261C45.513 37.7498 45.3156 37.3551 45.1972 36.8814C45.0788 36.4077 44.9998 35.7761 44.9998 35.0261V29.3419H47.4077ZM59.8025 31.5524C59.4077 31.434 59.0919 31.3551 58.7762 31.3551C58.3419 31.3551 57.9867 31.4735 57.7104 31.7103C57.4341 31.9472 57.2367 32.2235 57.1183 32.5787V38.4998H54.7498V29.3419H56.6051L56.8814 30.5656H56.9604C57.1577 30.1314 57.4341 29.7761 57.7893 29.4998C58.1446 29.2235 58.5788 29.1445 59.0525 29.1445C59.3683 29.1445 60.0393 29.3024 60.3946 29.4603L59.8025 31.5524ZM67.5393 37.9472C67.1841 38.2235 66.7104 38.4208 66.1972 38.5787C65.6841 38.7366 65.1314 38.7761 64.5788 38.7761C63.8288 38.7761 63.2367 38.6577 62.7235 38.4208C62.2104 38.184 61.8156 37.8682 61.4998 37.434C61.1841 36.9998 60.9472 36.4866 60.8288 35.8945C60.6709 35.3024 60.6314 34.6314 60.6314 33.9208C60.6314 32.3814 60.9867 31.1577 61.6972 30.3287C62.4077 29.4998 63.3946 29.0656 64.7367 29.0656C65.4077 29.0656 65.9604 29.1051 66.3551 29.2235C66.7498 29.3419 67.1446 29.4603 67.4604 29.6577L66.9077 31.5919C66.6314 31.4735 66.3551 31.3551 66.0788 31.2761C65.8025 31.1972 65.4867 31.1577 65.1314 31.1577C64.4604 31.1577 63.9867 31.3945 63.6314 31.8287C63.2762 32.263 63.1183 32.9735 63.1183 33.9208C63.1183 34.3156 63.1577 34.6708 63.2367 34.9866C63.3156 35.3024 63.4341 35.6182 63.6314 35.8551C63.7893 36.0919 64.0262 36.2893 64.3025 36.4472C64.5788 36.6051 64.8946 36.6445 65.2498 36.6445C65.6446 36.6445 65.9998 36.6051 66.2762 36.4866C66.5525 36.3682 66.7893 36.2498 67.0262 36.0919L67.5393 37.9472ZM75.9472 37.7103C75.5919 37.9866 75.0788 38.263 74.4472 38.4603C73.8156 38.6577 73.1446 38.7761 72.4341 38.7761C70.9341 38.7761 69.8683 38.3419 69.1972 37.4735C68.5262 36.6051 68.1709 35.4208 68.1709 33.9208C68.1709 32.3024 68.5656 31.0787 69.3156 30.2893C70.0656 29.4998 71.1709 29.0656 72.5525 29.0656C73.0262 29.0656 73.4604 29.1445 73.8946 29.263C74.3288 29.3814 74.7235 29.5787 75.0788 29.8551C75.4341 30.1314 75.7104 30.5261 75.9077 30.9998C76.1051 31.4735 76.2235 32.0656 76.2235 32.7761C76.2235 33.0524 76.2235 33.2893 76.1841 33.6051C76.1446 33.8814 76.1051 34.1972 76.0656 34.513H70.5393C70.5788 35.3024 70.7762 35.8551 71.1314 36.2498C71.4867 36.6445 72.0788 36.8419 72.8683 36.8419C73.3814 36.8419 73.8156 36.763 74.2104 36.6051C74.6051 36.4472 74.9209 36.2893 75.1183 36.1314L75.9472 37.7103ZM72.513 30.9603C71.8814 30.9603 71.4077 31.1577 71.1314 31.513C70.8156 31.8682 70.6577 32.3814 70.5788 33.013H73.9735C74.013 32.3419 73.9341 31.8287 73.6577 31.4735C73.4604 31.1577 73.0656 30.9603 72.513 30.9603ZM85.4998 38.4998C85.4998 39.8419 85.1446 40.8287 84.4341 41.4603C83.7235 42.0919 82.6972 42.4077 81.3946 42.4077C80.5262 42.4077 79.8156 42.3287 79.3025 42.2103C78.7893 42.0919 78.3946 41.9735 78.1577 41.8156L78.6709 39.9208C78.9472 40.0393 79.263 40.1577 79.6577 40.2366C80.0525 40.3156 80.4867 40.3945 81.0393 40.3945C81.8683 40.3945 82.4209 40.1972 82.7367 39.8419C83.0525 39.4866 83.1709 38.9735 83.1709 38.3419V37.7893H83.092C82.6577 38.3814 81.9077 38.6577 80.8025 38.6577C79.6183 38.6577 78.7498 38.3024 78.1577 37.5524C77.5656 36.8024 77.2893 35.6577 77.2893 34.1182C77.2893 32.4603 77.6841 31.2366 78.4735 30.4077C79.263 29.5787 80.4077 29.1445 81.8683 29.1445C82.6577 29.1445 83.3683 29.184 83.9604 29.3024C84.5525 29.4208 85.0656 29.5393 85.4604 29.6972V38.4998H85.4998ZM81.4735 36.7235C81.9472 36.7235 82.3025 36.6051 82.5393 36.4077C82.7762 36.2103 82.9735 35.8945 83.1314 35.4603V31.3551C82.7367 31.1972 82.263 31.1182 81.7104 31.1182C81.0788 31.1182 80.6051 31.3551 80.2893 31.7893C79.9341 32.263 79.7762 32.9735 79.7762 33.9998C79.7762 34.9077 79.934 35.5787 80.2104 36.0524C80.4867 36.5261 80.9209 36.7235 81.4735 36.7235ZM92.4077 31.5524C92.013 31.434 91.6972 31.3551 91.3814 31.3551C90.9472 31.3551 90.5919 31.4735 90.3156 31.7103C90.0393 31.9472 89.8419 32.2235 89.7235 32.5787V38.4998H87.3551V29.3419H89.2104L89.4867 30.5656H89.5656C89.763 30.1314 90.0393 29.7761 90.3946 29.4998C90.7498 29.2235 91.184 29.1445 91.6577 29.1445C91.9735 29.1445 92.3288 29.2235 92.7235 29.3419L92.4077 31.5524ZM93.5525 29.7761C94.0262 29.5393 94.3814 29.4603 95.0525 29.3419C95.7235 29.2235 96.4341 29.1445 97.1446 29.1445C97.7762 29.1445 98.3288 29.2235 98.7235 29.3814C99.1183 29.5393 99.4735 29.7366 99.7498 30.0524C99.9867 30.3287 100.184 30.684 100.263 31.0787C100.381 31.4735 100.421 31.9077 100.421 32.3814C100.421 32.934 100.421 33.4472 100.381 33.9998C100.342 34.5524 100.342 35.0656 100.302 35.6182C100.302 36.1314 100.302 36.6445 100.342 37.1577C100.381 37.6708 100.46 38.1051 100.618 38.5787H98.6841L98.2893 37.3156C98.0525 37.7103 97.6972 38.0261 97.263 38.3024C96.8288 38.5787 96.2762 38.6972 95.5656 38.6972C95.1314 38.6972 94.7367 38.6182 94.4209 38.4998C94.0656 38.3814 93.7893 38.184 93.5525 37.9472C93.3156 37.7103 93.1183 37.434 92.9998 37.1182C92.8814 36.8024 92.8025 36.4472 92.8025 36.013C92.8025 35.4603 92.9209 34.9866 93.1972 34.5919C93.4735 34.1972 93.7893 33.8814 94.263 33.6445C94.7367 33.4077 95.2893 33.2498 95.9604 33.1314C96.6314 33.013 97.3419 33.013 98.1709 33.0524C98.2498 32.3814 98.2104 31.8682 98.013 31.5919C97.8156 31.2761 97.4209 31.1577 96.7893 31.1577C96.3156 31.1577 95.8025 31.1972 95.2893 31.3156C94.7762 31.434 94.5393 31.4735 94.2235 31.6314L93.5525 29.7761ZM96.3551 36.684C96.8288 36.684 97.2235 36.5656 97.4998 36.3682C97.7762 36.1708 97.9735 35.934 98.1314 35.6972V34.513C97.7367 34.4735 97.3814 34.4735 97.0262 34.513C96.6709 34.5524 96.3551 34.5919 96.1183 34.6708C95.8814 34.7498 95.6446 34.8682 95.4867 35.0261C95.3288 35.184 95.2498 35.3814 95.2498 35.6182C95.2498 35.9735 95.3683 36.2103 95.5656 36.4077C95.7235 36.6051 95.9998 36.684 96.3551 36.684ZM102.276 29.3419H104.013L104.289 30.4472H104.368C104.684 29.9735 105.079 29.6577 105.513 29.4208C105.947 29.184 106.46 29.1051 107.092 29.1051C108.237 29.1051 109.105 29.4603 109.697 30.2103C110.289 30.9603 110.566 32.1051 110.566 33.7235C110.566 34.513 110.487 35.2235 110.289 35.8551C110.092 36.4866 109.816 37.0393 109.46 37.4735C109.105 37.9077 108.671 38.2629 108.158 38.4998C107.645 38.7366 107.052 38.8551 106.381 38.8551C105.987 38.8551 105.671 38.8156 105.434 38.7761C105.197 38.7366 104.96 38.6182 104.684 38.4998V42.2498H102.316V29.3419H102.276ZM106.342 31.0787C105.868 31.0787 105.513 31.1972 105.237 31.434C104.96 31.6708 104.763 32.0261 104.605 32.4998V36.3287C104.763 36.4472 104.96 36.5656 105.158 36.6445C105.355 36.7235 105.631 36.763 105.947 36.763C106.618 36.763 107.131 36.5261 107.487 36.0524C107.842 35.5787 108 34.7893 108 33.6445C108 32.8551 107.881 32.2235 107.605 31.7893C107.368 31.3156 106.934 31.0787 106.342 31.0787ZM117.474 38.4998V33.2893C117.474 32.5393 117.355 31.9866 117.158 31.6708C116.96 31.3551 116.566 31.1577 116.013 31.1577C115.618 31.1577 115.224 31.2761 114.908 31.5524C114.552 31.8287 114.355 32.184 114.237 32.6182V38.4603H111.868V25.6708H114.237V30.3682H114.316C114.592 29.9735 114.987 29.6577 115.381 29.4208C115.816 29.184 116.368 29.0656 117 29.0656C117.474 29.0656 117.868 29.1445 118.224 29.263C118.579 29.3814 118.895 29.5787 119.131 29.8551C119.368 30.1314 119.566 30.5261 119.645 30.9998C119.724 31.4735 119.802 32.0656 119.802 32.7761V38.4998H117.474Z" fill="#1C1C1C"/>
</g>
<defs>
<clipPath id="clip0_2471_4118">
<rect width="120" height="20.5263" fill="white" transform="translate(0 22)"/>
</clipPath>
</defs>
</svg>
