<svg width="120" height="64" viewBox="0 0 120 64" fill="none" xmlns="http://www.w3.org/2000/svg">
<mask id="mask0_2471_4126" style="mask-type:alpha" maskUnits="userSpaceOnUse" x="0" y="0" width="120" height="64">
<rect width="120" height="64" fill="#D9D9D9"/>
</mask>
<g mask="url(#mask0_2471_4126)">
</g>
<g clip-path="url(#clip0_2471_4126)">
<path d="M16.2337 28.7134L25.2697 32.839L34.3897 24.8518C34.521 24.1928 34.5863 23.5223 34.5841 22.8502C34.5836 20.6746 33.8869 18.5563 32.5957 16.8052C31.3048 15.0541 29.4872 13.7621 27.4088 13.1184C25.3307 12.4747 23.1011 12.5129 21.0462 13.2276C18.9914 13.9423 17.2191 15.2959 15.9889 17.0902L14.4697 24.9478L16.2337 28.7134Z" fill="#1C1C1C"/>
<path d="M6.88085 38.2832C6.74762 38.9526 6.68088 39.6335 6.68165 40.316C6.6817 42.5007 7.38202 44.6279 8.67984 46.3851C9.97766 48.1427 11.8046 49.4377 13.8926 50.0804C15.9806 50.7231 18.2196 50.6797 20.2811 49.9563C22.3425 49.2332 24.1179 47.8681 25.3464 46.0616L26.8512 38.2208L24.8424 34.3808L15.7728 30.248L6.88085 38.2832Z" fill="#1C1C1C"/>
<path d="M6.82586 22.648L13.0179 24.1096L14.3739 17.068C13.5317 16.4294 12.5052 16.0807 11.4483 16.0743C10.3914 16.0679 9.36082 16.404 8.5109 17.0323C7.66099 17.6606 7.03747 18.5473 6.7337 19.5597C6.42994 20.572 6.46226 21.6555 6.82586 22.648Z" fill="#1C1C1C"/>
<path d="M6.28772 24.1211C4.92912 24.5795 3.74717 25.45 2.90626 26.6114C2.06534 27.7727 1.60725 29.1673 1.5957 30.6011C1.59473 31.9868 2.01555 33.34 2.80222 34.4808C3.58887 35.6217 4.70412 36.496 5.99972 36.9875L14.6877 29.1347L13.0917 25.7267L6.28772 24.1211Z" fill="#1C1C1C"/>
<path d="M26.9355 46.0607C27.7765 46.696 28.8003 47.0426 29.8542 47.0481C30.908 47.0536 31.9355 46.7183 32.7829 46.0919C33.6306 45.4655 34.2527 44.5816 34.5567 43.5724C34.8606 42.5635 34.8299 41.483 34.4691 40.4927L28.2819 39.0527L26.9355 46.0607Z" fill="#1C1C1C"/>
<path d="M28.1929 37.4244L35.0041 39.0156C36.3635 38.5584 37.5462 37.6884 38.3874 36.5266C39.2286 35.365 39.6861 33.9698 39.6961 32.5356C39.6949 31.1528 39.2733 29.8031 38.4873 28.6654C37.701 27.5278 36.5877 26.6561 35.2945 26.166L26.3857 33.966L28.1929 37.4244Z" fill="#1C1C1C"/>
<path d="M57.734 39.8963L58.5596 39.8123L58.6172 41.4923C56.78 41.7698 54.9262 41.9222 53.0684 41.9483C51.0204 41.9483 49.5692 41.3555 48.7148 40.1699C47.8604 38.9843 47.4339 37.1395 47.4356 34.6355C47.4356 29.6483 49.418 27.154 53.3828 27.1523C55.3028 27.1523 56.7348 27.6884 57.6788 28.7603C58.6229 29.8324 59.0964 31.5124 59.0996 33.8003L58.9868 35.4227H49.598C49.598 36.9971 49.8828 38.1635 50.4524 38.9219C51.0221 39.6803 52.0124 40.0595 53.4236 40.0595C54.8381 40.0643 56.2748 40.0099 57.734 39.8963ZM56.966 33.7235C56.966 31.978 56.6868 30.7451 56.1284 30.0251C55.5699 29.3051 54.6596 28.9444 53.3972 28.9427C52.1348 28.9427 51.186 29.3219 50.5508 30.0803C49.9157 30.8387 49.5884 32.0531 49.5692 33.7235H56.966Z" fill="#1C1C1C"/>
<path d="M62.0762 41.8352V23.1152H64.2098V41.8352H62.0762Z" fill="#1C1C1C"/>
<path d="M77.647 31.732V38.908C77.647 39.628 79.4182 39.5896 79.4182 39.5896L79.3102 41.476C77.8102 41.476 76.5694 41.6008 75.8254 40.8784C74.2142 41.5941 72.469 41.9582 70.7062 41.9464C69.3989 41.9464 68.4029 41.5761 67.7182 40.8352C67.0334 40.0943 66.6917 39.0297 66.6934 37.6408C66.6934 36.2553 67.0445 35.2353 67.747 34.5808C68.4494 33.9264 69.5494 33.5264 71.047 33.3808L75.5134 32.956V31.732C75.5134 30.772 75.3053 30.0792 74.8894 29.6536C74.6614 29.4396 74.3926 29.274 74.0988 29.1668C73.805 29.0596 73.4928 29.0129 73.1806 29.0296H67.5742V27.1504H73.039C74.6518 27.1504 75.823 27.5208 76.5526 28.2616C77.2822 29.0024 77.647 30.1592 77.647 31.732ZM68.8798 37.5352C68.8798 39.2807 69.5998 40.1536 71.0398 40.1536C72.3389 40.1522 73.6284 39.9306 74.8534 39.4984L75.5062 39.2704V34.576L71.3038 34.9744C70.4494 35.0512 69.8326 35.2977 69.4534 35.7136C69.0742 36.1295 68.8829 36.7367 68.8798 37.5352Z" fill="#1C1C1C"/>
<path d="M85.9776 29.0569C83.9088 29.0569 82.8744 29.7769 82.8744 31.2169C82.8744 31.8825 83.1144 32.3521 83.5944 32.6257C84.0744 32.8993 85.1554 33.1841 86.8368 33.4801C88.5264 33.7761 89.7216 34.1889 90.4224 34.7185C91.1232 35.2482 91.4746 36.2432 91.476 37.7041C91.476 39.1664 91.0066 40.2385 90.0672 40.9201C89.1281 41.6017 87.7577 41.9432 85.956 41.9449C84.78 41.9449 80.8536 41.5081 80.8536 41.5081L80.9688 39.6601C83.2248 39.8761 84.8544 40.0369 85.956 40.0369C87.0576 40.0369 87.8952 39.8617 88.4736 39.5113C89.052 39.1609 89.34 38.5729 89.34 37.7473C89.34 36.9217 89.1 36.3625 88.6008 36.0673C88.1016 35.7721 87.0264 35.4937 85.3584 35.2273C83.6904 34.9609 82.5024 34.5721 81.8016 34.0609C81.1008 33.5497 80.748 32.5993 80.748 31.2145C80.748 29.8297 81.228 28.8145 82.2144 28.1425C83.2008 27.4705 84.4104 27.1465 85.8696 27.1465C87.0264 27.1465 91.0416 27.4417 91.0416 27.4417V29.3017C88.9224 29.2081 87.1896 29.0569 85.9776 29.0569Z" fill="#1C1C1C"/>
<path d="M101.76 29.2836H97.2361V36.0852C97.2361 37.7155 97.3544 38.7869 97.5913 39.2988C97.8313 39.8124 98.3929 40.0668 99.2833 40.0668L101.815 39.8964L101.959 41.6604C101.001 41.8378 100.03 41.9426 99.0553 41.9748C97.5769 41.9748 96.5528 41.6141 95.9833 40.8924C95.4138 40.1707 95.1296 38.7955 95.1313 36.7668V29.2836H93.1201V27.4356H95.1409V23.082H97.2457V27.4356H101.76V29.2836Z" fill="#1C1C1C"/>
<path d="M104.727 25.6194V23.1426H106.86V25.6194H104.727ZM104.727 41.8362V27.4362H106.86V41.8362H104.727Z" fill="#1C1C1C"/>
<path d="M116.102 27.1504C117.168 27.1959 118.229 27.3105 119.28 27.4936L119.961 27.5776L119.877 29.3128C118.762 29.1715 117.641 29.0866 116.517 29.0584C114.904 29.0584 113.809 29.4424 113.232 30.2104C112.654 30.9784 112.365 32.4008 112.363 34.4776C112.363 36.5577 112.633 38.0039 113.174 38.8168C113.715 39.6297 114.843 40.0377 116.558 40.0408L119.918 39.7864L120.004 41.5504C118.696 41.7719 117.375 41.9051 116.049 41.9488C113.832 41.9488 112.3 41.3793 111.456 40.24C110.611 39.1007 110.188 37.1807 110.188 34.48C110.188 31.7776 110.644 29.8808 111.554 28.7896C112.464 27.6984 113.98 27.152 116.102 27.1504Z" fill="#1C1C1C"/>
</g>
<defs>
<clipPath id="clip0_2471_4126">
<rect width="120" height="41.28" fill="white" transform="translate(0 11)"/>
</clipPath>
</defs>
</svg>
